<?xml version="1.0" encoding="iso-8859-1"?>
<!DOCTYPE svg PUBLIC "-//W3C//DTD SVG 1.1//EN" "http://www.w3.org/Graphics/SVG/1.1/DTD/svg11.dtd">
<svg 
 version="1.1" xmlns="http://www.w3.org/2000/svg" xmlns:xlink="http://www.w3.org/1999/xlink" x="0px" y="0px" width="512px"
	 height="512px" viewBox="0 0 512 512" style="enable-background:new 0 0 512 512;" xml:space="preserve"
><g id="afcae5a789ccd549f9c6e2a2f8108215"><g></g><path style="display: inline;" d="M405.042,172.164V32.438H0.5v447.125h404.542V339.836L511.5,479.563V32.438L405.042,172.164z
		 M202.771,394.396c-76.434,0-138.396-61.962-138.396-138.396c0-27.13,7.838-52.418,21.329-73.781
		c-0.004-0.249-0.037-0.491-0.037-0.74c0-23.516,19.063-42.583,42.583-42.583c0.25,0,0.491,0.033,0.74,0.037
		c21.363-13.49,46.65-21.329,73.781-21.329c76.433,0,138.396,61.962,138.396,138.396S279.204,394.396,202.771,394.396z
		 M170.833,181.479c0-9.04-2.836-17.407-7.644-24.303c12.238-4.907,25.587-7.635,39.581-7.635
		c58.792,0,106.458,47.666,106.458,106.458s-47.666,106.458-106.458,106.458c-58.793,0-106.458-47.665-106.458-106.458
		c0-13.993,2.728-27.343,7.635-39.581c6.895,4.807,15.262,7.643,24.303,7.643C151.771,224.063,170.833,204.996,170.833,181.479z"></path></g></svg>